
CASCADE Topology V1, (c) Matra-Datavision
Locations 21
1
1.000000000000000 0.000000000000000 0.000000000000000 0.000000000000000 
0.000000000000000 1.000000000000000 0.000000000000000 0.000000000000000 
0.000000000000000 0.000000000000000 1.000000000000000 0.000000000000000 
1
1.000000000000000 0.000000000000000 0.000000000000000 0.000000000000000 
0.000000000000000 1.000000000000000 0.000000000000000 0.000000000000000 
0.000000000000000 0.000000000000000 1.000000000000000 0.000000000000000 
1
1.000000000000000 0.000000000000000 0.000000000000000 0.000000000000000 
0.000000000000000 1.000000000000000 0.000000000000000 0.000000000000000 
0.000000000000000 0.000000000000000 1.000000000000000 0.000000000000000 
2  2 1 3 -1 0
1
1.000000000000000 0.000000000000000 0.000000000000000 0.000000000000000 
0.000000000000000 1.000000000000000 0.000000000000000 0.000000000000000 
0.000000000000000 0.000000000000000 1.000000000000000 0.000000000000000 
1
1.000000000000000 0.000000000000000 0.000000000000000 0.000000000000000 
0.000000000000000 1.000000000000000 0.000000000000000 0.000000000000000 
0.000000000000000 0.000000000000000 1.000000000000000 5.400000000000000 
2  5 1 3 -1 6 1 0
2  2 1 3 -1 6 -1 3 1 5 -1 0
1
1.000000000000000 0.000000000000000 0.000000000000000 0.000000000000000 
0.000000000000000 1.000000000000000 0.000000000000000 0.000000000000000 
0.000000000000000 0.000000000000000 1.000000000000000 0.000000000000000 
2  9 -1 6 -1 3 1 5 -1 0
2  9 -1 3 1 2 -1 0
1
1.000000000000000 0.000000000000000 0.000000000000000 0.000000000000000 
0.000000000000000 1.000000000000000 0.000000000000000 0.000000000000000 
0.000000000000000 0.000000000000000 1.000000000000000 0.000000000000000 
1
1.000000000000000 0.000000000000000 0.000000000000000 0.000000000000000 
0.000000000000000 1.000000000000000 0.000000000000000 0.000000000000000 
0.000000000000000 0.000000000000000 1.000000000000000 25.500000000000000 
2  5 1 12 -1 13 1 2 1 3 -1 0
2  13 -1 12 1 5 -1 0
2  9 -1 3 1 2 -1 13 -1 12 1 5 -1 0
2  3 -1 6 1 0
2  6 -1 3 1 5 -1 0
2  12 -1 13 1 2 1 3 -1 0
2  9 -1 0
2  12 -1 2 1 3 -1 0
Curve2ds 8
1 0.00000000000000000 -5.40000000000000036 1.00000000000000000 0.00000000000000000 
1 0.00000000000000000 0.00000000000000000 0.00000000000000000 -1.00000000000000000 
1 6.28318530717958623 0.00000000000000000 0.00000000000000000 -1.00000000000000000 
1 0.00000000000000000 -25.50000000000000000 1.00000000000000000 0.00000000000000000 
1 0.00000000000000000 0.00000000000000000 1.00000000000000000 0.00000000000000000 
1 0.00000000000000000 0.00000000000000000 0.00000000000000000 -1.00000000000000000 
1 6.28318530717958623 0.00000000000000000 0.00000000000000000 -1.00000000000000000 
1 0.00000000000000000 -5.40000000000000036 1.00000000000000000 0.00000000000000000 
Curves 6
2 0.00000000000000000 0.00000000000000000 0.00000000000000000 0.00000000000000000 0.00000000000000000 1.00000000000000000 1.00000000000000000 0.00000000000000000 0.00000000000000000 0.00000000000000000 1.00000000000000000 0.00000000000000000 6.79999999999999982
1 6.79999999999999982 0.00000000000000000 0.00000000000000000 0.00000000000000000 0.00000000000000000 1.00000000000000000 
2 0.00000000000000000 0.00000000000000000 0.00000000000000000 0.00000000000000000 0.00000000000000000 1.00000000000000000 1.00000000000000000 0.00000000000000000 0.00000000000000000 0.00000000000000000 1.00000000000000000 0.00000000000000000 6.79999999999999982
2 0.00000000000000000 0.00000000000000000 0.00000000000000000 0.00000000000000000 0.00000000000000000 1.00000000000000000 1.00000000000000000 0.00000000000000000 0.00000000000000000 0.00000000000000000 1.00000000000000000 0.00000000000000000 5.65000000000000036
1 5.65000000000000036 0.00000000000000000 5.40000000000000036 -0.00000000000000000 -0.00000000000000000 -1.00000000000000000 
2 0.00000000000000000 0.00000000000000000 0.00000000000000000 0.00000000000000000 0.00000000000000000 1.00000000000000000 1.00000000000000000 0.00000000000000000 0.00000000000000000 0.00000000000000000 1.00000000000000000 0.00000000000000000 5.65000000000000036
Polygon3D 0
PolygonOnTriangulations 0
Surfaces 5
2 0.00000000000000000 0.00000000000000000 0.00000000000000000 -0.00000000000000000 -0.00000000000000000 -1.00000000000000000 1.00000000000000000 0.00000000000000000 0.00000000000000000 0.00000000000000000 1.00000000000000000 0.00000000000000000 6.79999999999999982
1 -0.00000000000000022 0.00000000000000051 0.00000000000000000 0.00000000000000000 0.00000000000000000 1.00000000000000000 1.00000000000000000 0.00000000000000000 0.00000000000000000 0.00000000000000000 1.00000000000000000 0.00000000000000000 
2 0.00000000000000000 0.00000000000000000 5.40000000000000036 0.00000000000000000 0.00000000000000000 1.00000000000000000 1.00000000000000000 0.00000000000000000 0.00000000000000000 0.00000000000000000 1.00000000000000000 0.00000000000000000 5.65000000000000036
1 -0.00000000000000020 0.00000000000000053 0.00000000000000000 0.00000000000000000 0.00000000000000000 1.00000000000000000 1.00000000000000000 0.00000000000000000 0.00000000000000000 0.00000000000000000 1.00000000000000000 0.00000000000000000 
1 -0.00000000000000020 0.00000000000000053 0.00000000000000000 0.00000000000000000 0.00000000000000000 1.00000000000000000 1.00000000000000000 0.00000000000000000 0.00000000000000000 0.00000000000000000 1.00000000000000000 0.00000000000000000 
Triangulations 0

TShapes 23
Ve
0.000000100000006
6.800000000000000 0.000000000000000 5.400000000000000
0 0

0101101
*
Ed
 0.000000100000006 1 1 0
1  1 0 0.000000000000000 6.283185307179586
2  1 1 8 0.000000000000000 6.283185307179586
0

0101000
+23 10 -23 10 *
Ve
0.000000100000000
6.800000000000000 0.000000000000000 25.500000000000000
0 0

0101101
*
Ed
 0.000000100000000 1 1 0
1  2 0 5.400000000000000 25.500000000000000
3  2 3CN 1 0 5.400000000000000 25.500000000000000
0

0101000
+23 11 -21 11 *
Ed
 0.000000100000000 1 1 0
1  3 0 0.000000000000000 6.283185307179586
2  4 1 15 0.000000000000000 6.283185307179586
0

0101100
+21 16 -21 16 *
Wi

0101100
-22 7 -20 4 +19 14 +20 4 *
Fa
0  0.000000100000000 1 4

0101000
+18 0 *
Wi

0101100
+22 7 *
Ve
0.000000100000000
5.650000000000000 0.000000000000000 5.400000000000000
0 0

0101101
*
Ed
 0.000000100000000 1 1 0
1  4 0 0.000000000000000 6.283185307179586
2  5 3 18 0.000000000000000 6.283185307179586
0

0101100
+15 10 -15 10 *
Wi

0101100
+14 7 *
Fa
0  0.000000100000000 2 17

0101000
+16 0 -13 0 *
Wi

0101100
+19 5 *
Fa
0  0.000000100000000 4 0

0101000
+11 0 *
Ve
0.000000100000001
5.650000000000000 0.000000000000000 0.000000000000000
0 0

0101101
*
Ed
 0.000000100000000 1 1 0
1  5 0 0.000000000000000 5.400000000000000
3  6 7CN 3 0 0.000000000000000 5.400000000000000
0

0101000
+15 20 -9 20 *
Ed
 0.000000100000000 1 1 0
1  6 0 0.000000000000000 6.283185307179586
2  8 3 0 0.000000000000000 6.283185307179586
0

0101100
+9 20 -9 20 *
Wi

0101100
-14 7 -8 0 +7 0 +8 0 *
Fa
0  0.000000100000000 3 0

0101000
+6 0 *
Wi

0101100
+7 0 *
Fa
0  0.000000100000000 5 21

0101000
+4 0 *
Sh

0101100
-17 0 -12 0 +10 19 +5 0 -3 0 *
So

1100000
+2 0 *

+1 1 